<!DOCTYPE svg PUBLIC "-//W3C//DTD SVG 20010904//EN" "http://www.w3.org/TR/2001/REC-SVG-20010904/DTD/svg10.dtd">
<svg version="1.0" xmlns="http://www.w3.org/2000/svg" width="100px" height="100px" viewBox="0 0 1000 1000" preserveAspectRatio="xMidYMid meet"><g fill="#ffffbf" stroke="none">
 </g>

<g fill="#949fa6" stroke="none">
 </g>

<g fill="#7e8c95" stroke="none">
 </g>

<g fill="#707f88" stroke="none">
 </g>

<g fill="#62737d" stroke="none">
 </g>

<g fill="#536571" stroke="none">
 </g>

<g fill="#4c606b" stroke="none">
 </g>

<g fill="#ccffcc" stroke="none">
 </g>

<g fill="#9ec5cc" stroke="none">
 <path d="M405 610 c-4 -6 -10 -8 -15 -5 -5 3 -11 1 -14 -4 -4 -5 -2 -12 3 -15 5 -4 12 -2 16 4 4 6 10 8 15 5 5 -3 11 -1 14 4 4 5 2 12 -3 15 -5 4 -12 2 -16 -4z"/>
 <path d="M395 300 c-4 -6 -3 -16 3 -22 6 -6 12 -6 17 2 4 6 3 16 -3 22 -6 6 -12 6 -17 -2z"/>
 </g>

<g fill="#97adb4" stroke="none">
 <path d="M405 228 c-9 -22 -2 -68 10 -71 14 -3 19 63 6 76 -7 7 -12 5 -16 -5z"/>
 </g>

<g fill="#b4cfd5" stroke="none">
 <path d="M545 610 c-3 -5 -4 -11 -1 -11 3 -1 9 -2 14 -3 4 -1 17 -7 29 -14 13 -7 24 -8 28 -3 3 6 -4 15 -15 21 -11 6 -20 8 -20 4 0 -3 -6 -1 -14 5 -10 8 -16 9 -21 1z"/>
 </g>

<g fill="#568a96" stroke="none">
 <path d="M415 240 c-3 -5 0 -13 8 -16 23 -8 82 0 82 11 0 14 -82 19 -90 5z"/>
 </g>

<g fill="#c6dde1" stroke="none">
 <path d="M465 621 c-7 -12 12 -24 25 -16 11 7 4 25 -10 25 -5 0 -11 -4 -15 -9z"/>
 <path d="M434 376 c-4 -10 -2 -22 4 -28 8 -8 13 -7 18 6 4 10 2 22 -4 28 -8 8 -13 7 -18 -6z"/>
 <path d="M435 301 c-4 -8 -1 -19 8 -28 8 -8 17 -11 20 -5 4 5 0 17 -7 27 -10 14 -15 15 -21 6z"/>
 <path d="M375 281 c-7 -12 12 -24 25 -16 11 7 4 25 -10 25 -5 0 -11 -4 -15 -9z"/>
 </g>

<g fill="#d3e4e7" stroke="none">
 <path d="M445 619 c-3 -4 -2 -9 2 -12 14 -7 68 -2 71 8 3 11 -67 16 -73 4z"/>
 <path d="M392 608 c-7 -7 -12 -9 -12 -5 0 4 -14 0 -30 -8 -17 -9 -28 -20 -25 -25 4 -6 19 -3 38 7 18 9 35 17 40 18 4 0 7 4 8 8 1 15 -7 17 -19 5z"/>
 <path d="M375 311 c-7 -12 12 -24 25 -16 11 7 4 25 -10 25 -5 0 -11 -4 -15 -9z"/>
 <path d="M445 311 c-7 -12 12 -24 25 -16 11 7 4 25 -10 25 -5 0 -11 -4 -15 -9z"/>
 </g>

<g fill="#cbe296" stroke="none">
 </g>

<g fill="#8dbbc3" stroke="none">
 <path d="M345 586 c-11 -8 -14 -16 -8 -19 6 -4 18 0 28 7 11 8 14 16 8 19 -6 4 -18 0 -28 -7z"/>
 <path d="M399 316 c-5 -23 -2 -46 5 -48 12 -4 15 41 4 48 -4 3 -8 3 -9 0z"/>
 <path d="M305 240 c-3 -5 0 -13 8 -16 23 -8 102 0 102 11 0 14 -102 19 -110 5z"/>
 </g>

<g fill="#cadb8e" stroke="none">
 <path d="M366 91 c-4 -5 -2 -12 4 -16 5 -3 10 -3 10 1 0 3 6 1 14 -5 10 -8 16 -9 21 -1 3 5 4 11 1 11 -3 1 -9 2 -13 3 -5 1 -13 5 -20 9 -6 4 -14 3 -17 -2z"/>
 <path d="M575 90 c-4 -6 -10 -8 -15 -5 -5 3 -11 1 -14 -4 -4 -5 -2 -12 3 -15 5 -4 12 -2 16 4 4 6 10 8 15 5 5 -3 11 -1 14 4 4 5 2 12 -3 15 -5 4 -12 2 -16 -4z"/>
 <path d="M455 70 c-8 -13 20 -24 41 -16 20 8 9 26 -16 26 -10 0 -22 -5 -25 -10z"/>
 </g>

<g fill="#d5d9dc" stroke="none">
 <path d="M415 160 c-3 -5 0 -13 8 -15 24 -10 232 -1 230 10 -4 14 -229 19 -238 5z"/>
 </g>

<g fill="#e7f0cd" stroke="none">
 <path d="M465 631 c-7 -12 12 -24 25 -16 11 7 4 25 -10 25 -5 0 -11 -4 -15 -9z"/>
 <path d="M220 470 c-6 -11 -8 -20 -4 -20 3 0 1 -6 -5 -14 -8 -10 -9 -16 -1 -21 5 -3 11 -4 11 -1 1 3 2 9 3 14 1 4 7 17 14 29 7 13 8 24 3 28 -6 3 -15 -4 -21 -15z"/>
 <path d="M717 484 c-3 -4 -1 -16 5 -28 7 -11 12 -24 13 -28 0 -5 3 -8 8 -8 6 0 9 5 6 13 0 1 -2 10 -4 21 -4 23 -19 39 -28 30z"/>
 <path d="M195 377 c-9 -22 -2 -62 10 -60 6 1 11 14 13 29 4 32 -14 56 -23 31z"/>
 <path d="M745 377 c-9 -22 -2 -62 10 -60 6 1 11 14 13 29 4 32 -14 56 -23 31z"/>
 </g>

<g fill="#dbe8b5" stroke="none">
 <path d="M445 630 c-7 -12 5 -17 40 -16 17 1 29 5 28 11 -3 12 -61 16 -68 5z"/>
 <path d="M395 620 c-4 -6 -10 -8 -15 -5 -5 3 -11 1 -14 -4 -4 -5 -2 -12 3 -15 5 -4 12 -2 16 4 4 6 10 8 15 5 5 -3 11 -1 14 4 4 5 2 12 -3 15 -5 4 -12 2 -16 -4z"/>
 <path d="M546 621 c-4 -5 -2 -12 4 -16 5 -3 10 -3 10 1 0 3 6 1 14 -5 10 -8 16 -9 21 -1 3 5 4 11 1 11 -3 1 -9 2 -13 3 -5 1 -13 5 -20 9 -6 4 -14 3 -17 -2z"/>
 <path d="M276 551 c-10 -11 -13 -22 -8 -25 5 -3 17 3 26 13 10 11 13 22 8 25 -5 3 -17 -3 -26 -13z"/>
 <path d="M656 562 c-3 -5 3 -17 13 -26 11 -10 22 -13 25 -8 3 5 -3 17 -13 26 -11 10 -22 13 -25 8z"/>
 <path d="M207 273 c-4 -3 -2 -12 4 -20 6 -7 8 -13 5 -13 -4 0 -2 -9 4 -20 6 -11 15 -18 21 -15 5 4 4 15 -3 28 -7 12 -12 25 -13 29 0 11 -11 18 -18 11z"/>
 <path d="M739 276 c-1 -3 -2 -9 -3 -13 -1 -5 -7 -18 -14 -30 -7 -13 -8 -24 -3 -28 6 -3 15 4 21 15 6 11 8 20 4 20 -3 0 -1 6 5 14 8 10 9 16 1 21 -5 3 -11 4 -11 1z"/>
 </g>

<g fill="#b9d16c" stroke="none">
 <path d="M422 928 c-23 -35 -18 -63 5 -32 26 34 33 53 24 58 -5 3 -18 -8 -29 -26z"/>
 <path d="M320 771 c-6 -12 -6 -22 -1 -26 6 -3 15 3 21 14 6 12 6 22 1 26 -6 3 -15 -3 -21 -14z"/>
 <path d="M270 691 c-6 -12 -6 -22 -1 -26 6 -3 15 3 21 14 6 12 6 22 1 26 -6 3 -15 -3 -21 -14z"/>
 <path d="M415 631 c-7 -12 12 -24 25 -16 11 7 4 25 -10 25 -5 0 -11 -4 -15 -9z"/>
 <path d="M515 631 c-7 -12 12 -24 25 -16 11 7 4 25 -10 25 -5 0 -11 -4 -15 -9z"/>
 <path d="M220 611 c-6 -12 -6 -22 -1 -26 6 -3 15 3 21 14 6 12 6 22 1 26 -6 3 -15 -3 -21 -14z"/>
 <path d="M345 606 c-11 -8 -14 -16 -8 -19 6 -4 18 0 28 7 11 8 14 16 8 19 -6 4 -18 0 -28 -7z"/>
 <path d="M585 611 c-3 -6 3 -15 14 -21 12 -6 22 -6 26 -1 3 6 -3 15 -14 21 -12 6 -22 6 -26 1z"/>
 <path d="M185 551 c-9 -18 -11 -32 -5 -36 5 -3 16 8 25 24 9 18 11 32 5 36 -5 3 -16 -8 -25 -24z"/>
 <path d="M159 506 c-1 -3 -2 -9 -3 -13 -1 -5 -5 -14 -9 -20 -5 -7 -5 -13 -1 -13 3 0 1 -6 -5 -14 -8 -10 -9 -16 -1 -21 5 -3 11 -4 11 -1 4 16 7 26 9 31 1 3 3 8 4 13 1 4 5 12 9 19 4 6 3 14 -3 18 -5 3 -11 4 -11 1z"/>
 <path d="M220 481 c-6 -12 -6 -22 -1 -26 6 -3 15 3 21 14 6 12 6 22 1 26 -6 3 -15 -3 -21 -14z"/>
 <path d="M717 493 c-4 -6 0 -18 7 -28 8 -11 16 -14 19 -8 4 6 0 18 -7 28 -8 11 -16 14 -19 8z"/>
 <path d="M197 294 c-4 -4 -3 -12 1 -18 4 -6 7 -14 8 -18 1 -5 3 -10 4 -13 1 -3 3 -9 4 -15 0 -5 4 -10 9 -10 4 0 10 0 13 0 4 0 1 7 -6 15 -7 8 -9 15 -5 15 4 0 1 7 -6 17 -8 9 -12 18 -11 20 6 8 -4 13 -11 7z"/>
 <path d="M749 296 c-1 -3 -2 -9 -3 -13 -1 -5 -5 -13 -9 -20 -4 -6 -3 -14 3 -18 5 -3 11 -4 11 -1 1 3 2 9 3 14 1 4 5 12 9 19 4 6 3 14 -3 18 -5 3 -11 4 -11 1z"/>
 <path d="M147 244 c-3 -4 3 -25 15 -48 26 -51 38 -67 48 -61 5 3 -5 30 -22 60 -31 58 -31 58 -41 49z"/>
 <path d="M256 172 c-3 -5 8 -21 23 -36 16 -15 31 -23 35 -18 3 5 -8 21 -23 36 -16 15 -31 23 -35 18z"/>
 <path d="M666 151 c-15 -16 -23 -31 -18 -35 5 -3 21 8 36 23 15 16 23 31 18 35 -5 3 -21 -8 -36 -23z"/>
 <path d="M266 81 c-6 -8 5 -20 31 -35 23 -13 22 12 -2 28 -13 9 -26 12 -29 7z"/>
 <path d="M435 71 c-7 -12 12 -24 25 -16 11 7 4 25 -10 25 -5 0 -11 -4 -15 -9z"/>
 <path d="M495 71 c-7 -12 12 -24 25 -16 11 7 4 25 -10 25 -5 0 -11 -4 -15 -9z"/>
 <path d="M335 40 c-7 -12 18 -24 37 -18 8 3 5 9 -9 16 -14 8 -24 9 -28 2z"/>
 </g>

<g fill="#2e4856" stroke="none">
 <path d="M495 609 c-10 -26 -1 -384 10 -382 14 4 19 373 6 386 -7 7 -12 5 -16 -4z"/>
 <path d="M635 549 c-10 -26 -1 -394 10 -392 14 4 19 383 6 396 -7 7 -12 5 -16 -4z"/>
 </g>

<g fill="#243c4a" stroke="none">
 <path d="M507 613 c-4 -3 -7 -89 -7 -189 l0 -183 -42 -3 c-43 -3 -43 -3 -43 -43 l0 -40 115 0 115 0 0 205 0 205 -45 22 c-57 27 -85 35 -93 26z"/>
 </g>

<g fill="#66a4af" stroke="none">
 <path d="M396 605 c-22 -8 -51 -23 -65 -33 -26 -19 -26 -19 -26 -178 l0 -159 55 -5 c30 -3 75 -3 100 0 l45 5 0 190 0 190 -35 2 c-19 2 -53 -4 -74 -12z"/>
 </g>

<g fill="#a7c647" stroke="none">
 <path d="M381 857 c-145 -226 -222 -357 -238 -404 -26 -74 -14 -184 27 -261 36 -67 96 -128 158 -158 30 -15 60 -19 157 -19 113 0 123 2 166 27 65 39 134 119 159 186 18 47 21 73 18 143 -4 76 -8 92 -42 155 -81 146 -290 464 -305 464 -9 0 -51 -56 -100 -133z m194 -254 c65 -22 136 -93 158 -158 27 -78 22 -151 -14 -224 -105 -211 -414 -191 -496 32 -17 47 -15 136 4 192 21 62 93 136 154 158 59 21 134 21 194 0z"/>
 </g>

<g fill="#ffffff" stroke="none">
 <path d="M0 500 l0 -500 500 0 500 0 0 500 0 500 -500 0 -500 0 0 -500z m544 387 c143 -221 239 -383 253 -424 11 -31 14 -70 11 -131 -7 -141 -66 -228 -197 -291 -52 -25 -77 -31 -131 -31 -54 0 -79 6 -131 31 -131 63 -190 150 -197 290 -5 103 4 136 65 239 73 122 257 410 263 410 3 0 32 -42 64 -93z"/>
 <path d="M370 609 c-192 -87 -231 -340 -74 -478 140 -123 354 -79 438 91 21 41 26 67 26 122 0 89 -28 154 -92 212 -52 48 -133 83 -150 66 -8 -8 -6 -13 8 -17 10 -4 39 -14 64 -23 l45 -18 3 -202 2 -202 -109 0 -110 0 -3 38 c-3 37 -3 37 -50 40 l-48 3 0 159 0 159 30 16 c16 8 45 19 65 23 20 4 37 12 38 17 4 18 -37 15 -83 -6z"/>
 <path d="M443 374 c-9 -23 11 -38 26 -20 13 16 7 36 -10 36 -5 0 -12 -7 -16 -16z"/>
 <path d="M374 299 c-10 -17 13 -36 27 -22 12 12 4 33 -11 33 -5 0 -12 -5 -16 -11z"/>
 <path d="M444 299 c-10 -17 13 -36 27 -22 12 12 4 33 -11 33 -5 0 -12 -5 -16 -11z"/>
 </g>

</svg>